<?xml version="1.0" encoding="utf-8"?>
<!-- Generator: Adobe Illustrator 22.0.1, SVG Export Plug-In . SVG Version: 6.00 Build 0)  -->
<svg version="1.1" id="Capa_1" xmlns="http://www.w3.org/2000/svg" xmlns:xlink="http://www.w3.org/1999/xlink" x="0px" y="0px"
	 viewBox="0 0 64 64" style="enable-background:new 0 0 64 64;" xml:space="preserve">
<style type="text/css">
	.st0{fill:#04A777;}
</style>
<path class="st0" d="M21.3,64C27.2,64,32,59.2,32,53.3V42.7H21.3c-5.9,0-10.7,4.8-10.7,10.7C10.7,59.2,15.5,64,21.3,64z"/>
<path class="st0" d="M10.7,32c0-5.9,4.8-10.7,10.7-10.7H32v21.3H21.3C15.5,42.7,10.7,37.9,10.7,32z"/>
<path class="st0" d="M10.7,10.7C10.7,4.8,15.4,0,21.3,0H32v21.3H21.3C15.5,21.3,10.7,16.6,10.7,10.7z"/>
<path class="st0" d="M32,0h10.7c5.9,0,10.7,4.8,10.7,10.7c0,5.9-4.8,10.7-10.7,10.7H32V0z"/>
<path class="st0" d="M53.3,32c0,5.9-4.8,10.7-10.7,10.7C36.8,42.7,32,37.9,32,32c0-5.9,4.8-10.7,10.7-10.7
	C48.6,21.3,53.3,26.1,53.3,32z"/>
</svg>
