<?xml version="1.0" encoding="utf-8"?>
<!-- Generator: Adobe Illustrator 22.0.1, SVG Export Plug-In . SVG Version: 6.00 Build 0)  -->
<svg version="1.1" id="Capa_1" xmlns="http://www.w3.org/2000/svg" xmlns:xlink="http://www.w3.org/1999/xlink" x="0px" y="0px"
	 viewBox="0 0 64 64" style="enable-background:new 0 0 64 64;" xml:space="preserve">
<style type="text/css">
	.st0{fill:#138E65;}
	.st1{fill:#0C825B;}
	.st2{fill:#04A777;}
</style>
<path class="st0" d="M39.2,23.1l-6.4,6l-5.9-12l3.1-6.9c0.8-1.4,2-1.4,2.8,0L39.2,23.1z"/>
<path class="st1" d="M26.9,17.1l5.9,12L8.9,51.3L26.9,17.1z"/>
<path class="st2" d="M46.2,14c1.1-1.1,2.3-0.7,2.6,0.8L55.1,51L34.5,63.4c-0.7,0.4-2.6,0.6-2.6,0.6s-1.7-0.2-2.4-0.6L8.9,51.3
	L46.2,14z"/>
<path class="st2" d="M26.9,17.1l-18,34.3l8-50.1c0.3-1.6,1.2-1.7,2-0.3L26.9,17.1z"/>
</svg>
